<svg class="icon icon--linkedin" aria-hidden="true" viewBox="0 0 29 28" width="29" height="28" fill="none" xmlns="http://www.w3.org/2000/svg"><path d="M25 3.5H4v21h21v-21ZM11 19.833H8.056v-8.166H11v8.166ZM9.476 10.17c-.9 0-1.5-.6-1.5-1.4 0-.8.6-1.4 1.6-1.4.899 0 1.5.6 1.5 1.4 0 .8-.6 1.4-1.6 1.4ZM21.5 19.833h-2.849V15.37c0-1.235-.76-1.52-1.044-1.52-.285 0-1.235.19-1.235 1.52v4.463H13.43v-8.166h2.943v1.14c.38-.665 1.14-1.14 2.564-1.14 1.424 0 2.564 1.14 2.564 3.703v4.463Z" fill="currentColor"/></svg>